<svg width="1444" height="1065" viewBox="0 0 1444 1065" fill="none" xmlns="http://www.w3.org/2000/svg">
<g filter="url(#filter0_ddf_12_8)">
<path d="M99.528 399.01C74.9517 399.01 46.7059 402.247 24.0872 390.072C10.407 382.708 27.9005 372.691 34.7297 367.797C62.9214 347.595 95.2489 336.54 127.953 327.362C218.668 301.904 311.472 286.123 403.312 266.07C519.668 240.665 635.228 210.813 750.61 180.943C848.405 155.626 944.872 125.733 1041.19 94.8228C1109.72 72.8325 1177.84 47.0164 1247.98 31.1194C1255.86 29.3348 1303.79 10.9007 1311.16 25.728C1321.59 46.6949 1320.6 61.1127 1307.12 80.4931C1285.15 112.078 1255.15 138.749 1227.91 164.911C1184.3 206.798 1138.77 243.962 1089.96 278.839C947.076 380.935 800.317 477.228 658.734 581.324C609.195 617.746 557.54 664.1 521.458 715.399C516.205 722.869 500.744 741.589 509.334 751.72C524.74 769.892 554.711 765.323 574.267 763.922C631.374 759.831 688.063 751.258 744.817 743.775C844.757 730.598 945.184 719.377 1045.5 710.008C1142.32 700.966 1238.48 699.896 1335.41 708.022C1356.33 709.775 1401.59 707.974 1417.59 730.439C1435.12 755.053 1428.51 795.334 1423.52 822.943C1419.73 843.881 1420.81 866.113 1415.16 886.505C1407.65 913.647 1391.81 931.421 1371.79 949.499C1359.36 960.718 1386.34 951.434 1389.57 950.634" stroke="#D0CECE" stroke-width="5" stroke-linecap="round"/>
</g>
<g filter="url(#filter1_ddf_12_8)">
<path d="M620.892 343.741C608.588 344.984 601.514 358.145 595.66 365.845C575.139 392.839 558.086 421.69 535.46 447.459C521.758 463.065 505.571 476.195 489.011 489.46C476.014 499.87 463.008 512.318 447.977 520.815C428.128 532.037 405.986 526.358 383.386 521.076" stroke="#D0CECE" stroke-width="5" stroke-linecap="round"/>
</g>
<g filter="url(#filter2_ddf_12_8)">
<path d="M407 865C412.446 865.346 420.288 863.699 426.343 863.479C440.429 862.968 453.448 863.908 466.054 864.805C503.976 867.504 539.716 872.226 575.964 876.258C638.291 883.191 701.133 889.283 767.244 893.111C805.604 895.332 838.885 897.737 881.226 895.953C927.129 894.019 967.824 888.52 1017 881.827C1068.15 874.864 1121.79 868.139 1174.85 853.864C1187.27 850.522 1199.57 847.933 1211.89 845.651" stroke="#D0CECE" stroke-width="5" stroke-linecap="round"/>
</g>
<g filter="url(#filter3_ddf_12_8)">
<path d="M1155.12 531.471C1153.08 529.053 1149.25 527.106 1146.72 524.85C1140.86 519.601 1136.02 513.739 1131.33 508.072C1117.24 491.024 1104.86 473.398 1091.99 456.063C1069.87 426.256 1047.18 396.846 1022.24 367.755C1007.77 350.875 995.41 335.887 977.666 320.288C958.43 303.376 939.796 291.093 917.258 276.285C893.814 260.881 869.47 244.315 842.209 233.391C835.826 230.833 829.804 227.781 823.908 224.507" stroke="#D0CECE" stroke-width="5" stroke-linecap="round"/>
</g>
<g filter="url(#filter4_ddf_12_8)">
<path d="M368.848 57.0185C369.414 59.3844 387.468 51.57 389.025 51.0648C423.808 39.7778 459.523 31.2349 494.892 23.1569C513.426 18.924 532.054 15.7468 550.748 12.738C564.949 10.4523 580.519 6.12435 594.995 7.15641C609.753 8.2085 610.691 23.4568 617.431 35.5294C627.626 53.7912 643.826 62.3408 661.757 63.5303C801.667 72.8123 942.246 39.1781 1079.77 13.4822" stroke="#D0CECE" stroke-width="5" stroke-linecap="round"/>
</g>
<g filter="url(#filter5_ddf_12_8)">
<path d="M1434.21 30.243C1431.15 46.7818 1433.47 61.6079 1435.53 78.163C1437.54 94.3649 1437.57 110.453 1437.16 126.839C1435.96 175.005 1432.31 220.564 1420.23 266.724C1376.69 433.079 1315.12 592.386 1251.12 748.192" stroke="#D0CECE" stroke-width="5" stroke-linecap="round"/>
</g>
<g filter="url(#filter6_ddf_12_8)">
<path d="M216.694 159.37C178.358 191.697 139.449 223.519 99.3341 252.524C72.4496 271.962 40.8744 287.307 18.785 314.878C-1.80471 340.576 6.21573 376.071 30.2253 395.749C59.4831 419.728 93.4874 434.704 123.46 457.347C137.38 467.863 149.078 481.583 159.96 496.365C176.288 518.547 184.163 536.755 184.786 566.561C185.398 595.804 183.375 625.188 184.475 654.423C185.487 681.335 205.891 689.242 225.1 689.474C278.71 690.121 332.897 686.661 386.353 682.105C409.097 680.166 431.894 676.936 454.684 675.775C460.769 675.465 475.8 672.784 472.739 679.176C469.935 685.032 458.056 691.097 453.439 695.237C437.144 709.844 422.671 726.189 408.456 743.703C378.902 780.115 343.502 809.151 312.886 844.131C294.003 865.706 270.836 891.07 261.522 921.223" stroke="#D0CECE" stroke-width="5" stroke-linecap="round"/>
</g>
<defs>
<filter id="filter0_ddf_12_8" x="12.4997" y="13.5001" width="1423" height="952" filterUnits="userSpaceOnUse" color-interpolation-filters="sRGB">
<feFlood flood-opacity="0" result="BackgroundImageFix"/>
<feColorMatrix in="SourceAlpha" type="matrix" values="0 0 0 0 0 0 0 0 0 0 0 0 0 0 0 0 0 0 127 0" result="hardAlpha"/>
<feOffset dy="4"/>
<feGaussianBlur stdDeviation="2"/>
<feComposite in2="hardAlpha" operator="out"/>
<feColorMatrix type="matrix" values="0 0 0 0 0 0 0 0 0 0 0 0 0 0 0 0 0 0 0.25 0"/>
<feBlend mode="normal" in2="BackgroundImageFix" result="effect1_dropShadow_12_8"/>
<feColorMatrix in="SourceAlpha" type="matrix" values="0 0 0 0 0 0 0 0 0 0 0 0 0 0 0 0 0 0 127 0" result="hardAlpha"/>
<feOffset dy="4"/>
<feGaussianBlur stdDeviation="2"/>
<feComposite in2="hardAlpha" operator="out"/>
<feColorMatrix type="matrix" values="0 0 0 0 0 0 0 0 0 0 0 0 0 0 0 0 0 0 0.25 0"/>
<feBlend mode="normal" in2="effect1_dropShadow_12_8" result="effect2_dropShadow_12_8"/>
<feBlend mode="normal" in="SourceGraphic" in2="effect2_dropShadow_12_8" result="shape"/>
<feGaussianBlur stdDeviation="2" result="effect3_foregroundBlur_12_8"/>
</filter>
<filter id="filter1_ddf_12_8" x="376.885" y="337.241" width="250.507" height="200.55" filterUnits="userSpaceOnUse" color-interpolation-filters="sRGB">
<feFlood flood-opacity="0" result="BackgroundImageFix"/>
<feColorMatrix in="SourceAlpha" type="matrix" values="0 0 0 0 0 0 0 0 0 0 0 0 0 0 0 0 0 0 127 0" result="hardAlpha"/>
<feOffset dy="4"/>
<feGaussianBlur stdDeviation="2"/>
<feComposite in2="hardAlpha" operator="out"/>
<feColorMatrix type="matrix" values="0 0 0 0 0 0 0 0 0 0 0 0 0 0 0 0 0 0 0.25 0"/>
<feBlend mode="normal" in2="BackgroundImageFix" result="effect1_dropShadow_12_8"/>
<feColorMatrix in="SourceAlpha" type="matrix" values="0 0 0 0 0 0 0 0 0 0 0 0 0 0 0 0 0 0 127 0" result="hardAlpha"/>
<feOffset dy="4"/>
<feGaussianBlur stdDeviation="2"/>
<feComposite in2="hardAlpha" operator="out"/>
<feColorMatrix type="matrix" values="0 0 0 0 0 0 0 0 0 0 0 0 0 0 0 0 0 0 0.25 0"/>
<feBlend mode="normal" in2="effect1_dropShadow_12_8" result="effect2_dropShadow_12_8"/>
<feBlend mode="normal" in="SourceGraphic" in2="effect2_dropShadow_12_8" result="shape"/>
<feGaussianBlur stdDeviation="2" result="effect3_foregroundBlur_12_8"/>
</filter>
<filter id="filter2_ddf_12_8" x="400.5" y="839.15" width="817.888" height="67.9237" filterUnits="userSpaceOnUse" color-interpolation-filters="sRGB">
<feFlood flood-opacity="0" result="BackgroundImageFix"/>
<feColorMatrix in="SourceAlpha" type="matrix" values="0 0 0 0 0 0 0 0 0 0 0 0 0 0 0 0 0 0 127 0" result="hardAlpha"/>
<feOffset dy="4"/>
<feGaussianBlur stdDeviation="2"/>
<feComposite in2="hardAlpha" operator="out"/>
<feColorMatrix type="matrix" values="0 0 0 0 0 0 0 0 0 0 0 0 0 0 0 0 0 0 0.25 0"/>
<feBlend mode="normal" in2="BackgroundImageFix" result="effect1_dropShadow_12_8"/>
<feColorMatrix in="SourceAlpha" type="matrix" values="0 0 0 0 0 0 0 0 0 0 0 0 0 0 0 0 0 0 127 0" result="hardAlpha"/>
<feOffset dy="4"/>
<feGaussianBlur stdDeviation="2"/>
<feComposite in2="hardAlpha" operator="out"/>
<feColorMatrix type="matrix" values="0 0 0 0 0 0 0 0 0 0 0 0 0 0 0 0 0 0 0.25 0"/>
<feBlend mode="normal" in2="effect1_dropShadow_12_8" result="effect2_dropShadow_12_8"/>
<feBlend mode="normal" in="SourceGraphic" in2="effect2_dropShadow_12_8" result="shape"/>
<feGaussianBlur stdDeviation="2" result="effect3_foregroundBlur_12_8"/>
</filter>
<filter id="filter3_ddf_12_8" x="817.407" y="218.006" width="344.217" height="323.965" filterUnits="userSpaceOnUse" color-interpolation-filters="sRGB">
<feFlood flood-opacity="0" result="BackgroundImageFix"/>
<feColorMatrix in="SourceAlpha" type="matrix" values="0 0 0 0 0 0 0 0 0 0 0 0 0 0 0 0 0 0 127 0" result="hardAlpha"/>
<feOffset dy="4"/>
<feGaussianBlur stdDeviation="2"/>
<feComposite in2="hardAlpha" operator="out"/>
<feColorMatrix type="matrix" values="0 0 0 0 0 0 0 0 0 0 0 0 0 0 0 0 0 0 0.25 0"/>
<feBlend mode="normal" in2="BackgroundImageFix" result="effect1_dropShadow_12_8"/>
<feColorMatrix in="SourceAlpha" type="matrix" values="0 0 0 0 0 0 0 0 0 0 0 0 0 0 0 0 0 0 127 0" result="hardAlpha"/>
<feOffset dy="4"/>
<feGaussianBlur stdDeviation="2"/>
<feComposite in2="hardAlpha" operator="out"/>
<feColorMatrix type="matrix" values="0 0 0 0 0 0 0 0 0 0 0 0 0 0 0 0 0 0 0.25 0"/>
<feBlend mode="normal" in2="effect1_dropShadow_12_8" result="effect2_dropShadow_12_8"/>
<feBlend mode="normal" in="SourceGraphic" in2="effect2_dropShadow_12_8" result="shape"/>
<feGaussianBlur stdDeviation="2" result="effect3_foregroundBlur_12_8"/>
</filter>
<filter id="filter4_ddf_12_8" x="362.348" y="0.500061" width="723.927" height="75.1064" filterUnits="userSpaceOnUse" color-interpolation-filters="sRGB">
<feFlood flood-opacity="0" result="BackgroundImageFix"/>
<feColorMatrix in="SourceAlpha" type="matrix" values="0 0 0 0 0 0 0 0 0 0 0 0 0 0 0 0 0 0 127 0" result="hardAlpha"/>
<feOffset dy="4"/>
<feGaussianBlur stdDeviation="2"/>
<feComposite in2="hardAlpha" operator="out"/>
<feColorMatrix type="matrix" values="0 0 0 0 0 0 0 0 0 0 0 0 0 0 0 0 0 0 0.25 0"/>
<feBlend mode="normal" in2="BackgroundImageFix" result="effect1_dropShadow_12_8"/>
<feColorMatrix in="SourceAlpha" type="matrix" values="0 0 0 0 0 0 0 0 0 0 0 0 0 0 0 0 0 0 127 0" result="hardAlpha"/>
<feOffset dy="4"/>
<feGaussianBlur stdDeviation="2"/>
<feComposite in2="hardAlpha" operator="out"/>
<feColorMatrix type="matrix" values="0 0 0 0 0 0 0 0 0 0 0 0 0 0 0 0 0 0 0.25 0"/>
<feBlend mode="normal" in2="effect1_dropShadow_12_8" result="effect2_dropShadow_12_8"/>
<feBlend mode="normal" in="SourceGraphic" in2="effect2_dropShadow_12_8" result="shape"/>
<feGaussianBlur stdDeviation="2" result="effect3_foregroundBlur_12_8"/>
</filter>
<filter id="filter5_ddf_12_8" x="1244.62" y="23.7426" width="199.246" height="734.95" filterUnits="userSpaceOnUse" color-interpolation-filters="sRGB">
<feFlood flood-opacity="0" result="BackgroundImageFix"/>
<feColorMatrix in="SourceAlpha" type="matrix" values="0 0 0 0 0 0 0 0 0 0 0 0 0 0 0 0 0 0 127 0" result="hardAlpha"/>
<feOffset dy="4"/>
<feGaussianBlur stdDeviation="2"/>
<feComposite in2="hardAlpha" operator="out"/>
<feColorMatrix type="matrix" values="0 0 0 0 0 0 0 0 0 0 0 0 0 0 0 0 0 0 0.25 0"/>
<feBlend mode="normal" in2="BackgroundImageFix" result="effect1_dropShadow_12_8"/>
<feColorMatrix in="SourceAlpha" type="matrix" values="0 0 0 0 0 0 0 0 0 0 0 0 0 0 0 0 0 0 127 0" result="hardAlpha"/>
<feOffset dy="4"/>
<feGaussianBlur stdDeviation="2"/>
<feComposite in2="hardAlpha" operator="out"/>
<feColorMatrix type="matrix" values="0 0 0 0 0 0 0 0 0 0 0 0 0 0 0 0 0 0 0.25 0"/>
<feBlend mode="normal" in2="effect1_dropShadow_12_8" result="effect2_dropShadow_12_8"/>
<feBlend mode="normal" in="SourceGraphic" in2="effect2_dropShadow_12_8" result="shape"/>
<feGaussianBlur stdDeviation="2" result="effect3_foregroundBlur_12_8"/>
</filter>
<filter id="filter6_ddf_12_8" x="0.493042" y="152.87" width="479.153" height="778.853" filterUnits="userSpaceOnUse" color-interpolation-filters="sRGB">
<feFlood flood-opacity="0" result="BackgroundImageFix"/>
<feColorMatrix in="SourceAlpha" type="matrix" values="0 0 0 0 0 0 0 0 0 0 0 0 0 0 0 0 0 0 127 0" result="hardAlpha"/>
<feOffset dy="4"/>
<feGaussianBlur stdDeviation="2"/>
<feComposite in2="hardAlpha" operator="out"/>
<feColorMatrix type="matrix" values="0 0 0 0 0 0 0 0 0 0 0 0 0 0 0 0 0 0 0.25 0"/>
<feBlend mode="normal" in2="BackgroundImageFix" result="effect1_dropShadow_12_8"/>
<feColorMatrix in="SourceAlpha" type="matrix" values="0 0 0 0 0 0 0 0 0 0 0 0 0 0 0 0 0 0 127 0" result="hardAlpha"/>
<feOffset dy="4"/>
<feGaussianBlur stdDeviation="2"/>
<feComposite in2="hardAlpha" operator="out"/>
<feColorMatrix type="matrix" values="0 0 0 0 0 0 0 0 0 0 0 0 0 0 0 0 0 0 0.25 0"/>
<feBlend mode="normal" in2="effect1_dropShadow_12_8" result="effect2_dropShadow_12_8"/>
<feBlend mode="normal" in="SourceGraphic" in2="effect2_dropShadow_12_8" result="shape"/>
<feGaussianBlur stdDeviation="2" result="effect3_foregroundBlur_12_8"/>
</filter>
</defs>
</svg>
