<svg width="1488" height="980" viewBox="0 0 1488 980" fill="none" xmlns="http://www.w3.org/2000/svg">
<g filter="url(#filter0_ddf_3_4)">
<path d="M404.704 351.497C390.513 351.497 374.204 353.656 361.143 345.535C353.244 340.623 363.345 333.941 367.288 330.676C383.567 317.201 402.233 309.826 421.117 303.704C473.497 286.723 527.084 276.196 580.115 262.82C647.3 245.874 714.027 225.961 780.65 206.037C837.119 189.149 892.821 169.209 948.438 148.591C988.004 133.922 1027.34 116.702 1067.84 106.098C1072.39 104.907 1100.07 92.6109 1104.32 102.501C1110.34 116.487 1109.77 126.105 1101.99 139.032C1089.3 160.1 1071.98 177.891 1056.25 195.342C1031.07 223.283 1004.78 248.073 976.597 271.338C894.093 339.44 809.352 403.672 727.599 473.108C698.995 497.403 669.168 528.323 648.334 562.542C645.301 567.525 636.373 580.012 641.333 586.77C650.229 598.891 667.535 595.843 678.827 594.909C711.801 592.18 744.535 586.462 777.305 581.47C835.013 572.68 893.001 565.196 950.927 558.946C1006.83 552.914 1062.36 552.201 1118.33 557.621C1130.4 558.791 1156.54 557.589 1165.78 572.574C1175.9 588.993 1172.08 615.862 1169.2 634.279C1167.01 648.245 1167.64 663.075 1164.38 676.677C1160.03 694.782 1150.89 706.638 1139.33 718.697C1132.15 726.181 1147.73 719.988 1149.6 719.454" stroke="#D0CECE" stroke-width="5" stroke-linecap="round"/>
</g>
<g filter="url(#filter1_ddf_3_4)">
<path d="M1234.09 380.179C1239.4 391.347 1254.18 393.58 1263.4 396.502C1295.72 406.744 1328.63 413.095 1360.51 425.732C1379.81 433.385 1397.62 444.209 1415.69 455.342C1429.86 464.078 1445.96 472.138 1459.02 483.433C1476.27 498.349 1478.37 521.11 1481 544.17" stroke="#D0CECE" stroke-width="5" stroke-linecap="round"/>
</g>
<g filter="url(#filter2_ddf_3_4)">
<path d="M632.785 969C635.705 965.016 636.685 958.809 639.024 954.247C644.464 943.633 651.614 934.132 658.52 924.929C679.292 897.247 702.144 871.632 724.183 845.489C762.078 800.535 798.936 755.015 833.829 706.562C854.075 678.448 872.361 654.161 888.34 622.203C905.664 587.558 915.332 556.015 926.943 517.89C939.02 478.23 952.552 436.769 954.471 394.095C954.921 384.104 956.453 374.362 958.448 364.683" stroke="#D0CECE" stroke-width="5" stroke-linecap="round"/>
</g>
<g filter="url(#filter3_ddf_3_4)">
<path d="M368.848 57.0185C369.414 59.3844 387.468 51.57 389.025 51.0648C423.808 39.7778 459.523 31.2349 494.892 23.1569C513.426 18.924 532.054 15.7468 550.748 12.738C564.949 10.4523 580.519 6.12435 594.995 7.15641C609.753 8.2085 610.691 23.4568 617.431 35.5294C627.626 53.7912 643.826 62.3408 661.757 63.5303C801.667 72.8123 942.246 39.1781 1079.77 13.4822" stroke="#D0CECE" stroke-width="5" stroke-linecap="round"/>
</g>
<g filter="url(#filter4_ddf_3_4)">
<path d="M1434.21 30.243C1431.15 46.7817 1433.47 61.6079 1435.53 78.1629C1437.54 94.3649 1437.57 110.453 1437.16 126.839C1435.96 175.005 1432.31 220.564 1420.23 266.724C1376.69 433.079 1315.12 592.386 1251.12 748.192" stroke="#D0CECE" stroke-width="5" stroke-linecap="round"/>
</g>
<g filter="url(#filter5_ddf_3_4)">
<path d="M216.694 159.37C178.358 191.697 139.449 223.519 99.3341 252.524C72.4496 271.962 40.8744 287.307 18.785 314.878C-1.80471 340.576 6.21573 376.071 30.2253 395.749C59.4831 419.728 93.4874 434.704 123.46 457.347C137.38 467.863 149.078 481.583 159.96 496.365C176.288 518.547 184.163 536.755 184.786 566.561C185.398 595.804 183.375 625.188 184.475 654.423C185.487 681.335 205.891 689.242 225.1 689.474C278.71 690.121 332.897 686.661 386.353 682.105C409.097 680.166 431.894 676.936 454.684 675.775C460.769 675.465 475.8 672.784 472.739 679.176C469.935 685.032 458.056 691.097 453.439 695.237C437.144 709.844 422.671 726.189 408.456 743.703C378.902 780.115 343.502 809.151 312.886 844.131C294.003 865.706 270.836 891.07 261.522 921.223" stroke="#D0CECE" stroke-width="5" stroke-linecap="round"/>
</g>
<defs>
<filter id="filter0_ddf_3_4" x="351.706" y="92.1807" width="827.159" height="640.686" filterUnits="userSpaceOnUse" color-interpolation-filters="sRGB">
<feFlood flood-opacity="0" result="BackgroundImageFix"/>
<feColorMatrix in="SourceAlpha" type="matrix" values="0 0 0 0 0 0 0 0 0 0 0 0 0 0 0 0 0 0 127 0" result="hardAlpha"/>
<feOffset dy="4"/>
<feGaussianBlur stdDeviation="2"/>
<feComposite in2="hardAlpha" operator="out"/>
<feColorMatrix type="matrix" values="0 0 0 0 0 0 0 0 0 0 0 0 0 0 0 0 0 0 0.25 0"/>
<feBlend mode="normal" in2="BackgroundImageFix" result="effect1_dropShadow_3_4"/>
<feColorMatrix in="SourceAlpha" type="matrix" values="0 0 0 0 0 0 0 0 0 0 0 0 0 0 0 0 0 0 127 0" result="hardAlpha"/>
<feOffset dy="4"/>
<feGaussianBlur stdDeviation="2"/>
<feComposite in2="hardAlpha" operator="out"/>
<feColorMatrix type="matrix" values="0 0 0 0 0 0 0 0 0 0 0 0 0 0 0 0 0 0 0.25 0"/>
<feBlend mode="normal" in2="effect1_dropShadow_3_4" result="effect2_dropShadow_3_4"/>
<feBlend mode="normal" in="SourceGraphic" in2="effect2_dropShadow_3_4" result="shape"/>
<feGaussianBlur stdDeviation="2" result="effect3_foregroundBlur_3_4"/>
</filter>
<filter id="filter1_ddf_3_4" x="1227.59" y="373.678" width="259.909" height="180.993" filterUnits="userSpaceOnUse" color-interpolation-filters="sRGB">
<feFlood flood-opacity="0" result="BackgroundImageFix"/>
<feColorMatrix in="SourceAlpha" type="matrix" values="0 0 0 0 0 0 0 0 0 0 0 0 0 0 0 0 0 0 127 0" result="hardAlpha"/>
<feOffset dy="4"/>
<feGaussianBlur stdDeviation="2"/>
<feComposite in2="hardAlpha" operator="out"/>
<feColorMatrix type="matrix" values="0 0 0 0 0 0 0 0 0 0 0 0 0 0 0 0 0 0 0.25 0"/>
<feBlend mode="normal" in2="BackgroundImageFix" result="effect1_dropShadow_3_4"/>
<feColorMatrix in="SourceAlpha" type="matrix" values="0 0 0 0 0 0 0 0 0 0 0 0 0 0 0 0 0 0 127 0" result="hardAlpha"/>
<feOffset dy="4"/>
<feGaussianBlur stdDeviation="2"/>
<feComposite in2="hardAlpha" operator="out"/>
<feColorMatrix type="matrix" values="0 0 0 0 0 0 0 0 0 0 0 0 0 0 0 0 0 0 0.25 0"/>
<feBlend mode="normal" in2="effect1_dropShadow_3_4" result="effect2_dropShadow_3_4"/>
<feBlend mode="normal" in="SourceGraphic" in2="effect2_dropShadow_3_4" result="shape"/>
<feGaussianBlur stdDeviation="2" result="effect3_foregroundBlur_3_4"/>
</filter>
<filter id="filter2_ddf_3_4" x="626.285" y="358.183" width="338.664" height="621.317" filterUnits="userSpaceOnUse" color-interpolation-filters="sRGB">
<feFlood flood-opacity="0" result="BackgroundImageFix"/>
<feColorMatrix in="SourceAlpha" type="matrix" values="0 0 0 0 0 0 0 0 0 0 0 0 0 0 0 0 0 0 127 0" result="hardAlpha"/>
<feOffset dy="4"/>
<feGaussianBlur stdDeviation="2"/>
<feComposite in2="hardAlpha" operator="out"/>
<feColorMatrix type="matrix" values="0 0 0 0 0 0 0 0 0 0 0 0 0 0 0 0 0 0 0.25 0"/>
<feBlend mode="normal" in2="BackgroundImageFix" result="effect1_dropShadow_3_4"/>
<feColorMatrix in="SourceAlpha" type="matrix" values="0 0 0 0 0 0 0 0 0 0 0 0 0 0 0 0 0 0 127 0" result="hardAlpha"/>
<feOffset dy="4"/>
<feGaussianBlur stdDeviation="2"/>
<feComposite in2="hardAlpha" operator="out"/>
<feColorMatrix type="matrix" values="0 0 0 0 0 0 0 0 0 0 0 0 0 0 0 0 0 0 0.25 0"/>
<feBlend mode="normal" in2="effect1_dropShadow_3_4" result="effect2_dropShadow_3_4"/>
<feBlend mode="normal" in="SourceGraphic" in2="effect2_dropShadow_3_4" result="shape"/>
<feGaussianBlur stdDeviation="2" result="effect3_foregroundBlur_3_4"/>
</filter>
<filter id="filter3_ddf_3_4" x="362.348" y="0.500092" width="723.927" height="75.1064" filterUnits="userSpaceOnUse" color-interpolation-filters="sRGB">
<feFlood flood-opacity="0" result="BackgroundImageFix"/>
<feColorMatrix in="SourceAlpha" type="matrix" values="0 0 0 0 0 0 0 0 0 0 0 0 0 0 0 0 0 0 127 0" result="hardAlpha"/>
<feOffset dy="4"/>
<feGaussianBlur stdDeviation="2"/>
<feComposite in2="hardAlpha" operator="out"/>
<feColorMatrix type="matrix" values="0 0 0 0 0 0 0 0 0 0 0 0 0 0 0 0 0 0 0.25 0"/>
<feBlend mode="normal" in2="BackgroundImageFix" result="effect1_dropShadow_3_4"/>
<feColorMatrix in="SourceAlpha" type="matrix" values="0 0 0 0 0 0 0 0 0 0 0 0 0 0 0 0 0 0 127 0" result="hardAlpha"/>
<feOffset dy="4"/>
<feGaussianBlur stdDeviation="2"/>
<feComposite in2="hardAlpha" operator="out"/>
<feColorMatrix type="matrix" values="0 0 0 0 0 0 0 0 0 0 0 0 0 0 0 0 0 0 0.25 0"/>
<feBlend mode="normal" in2="effect1_dropShadow_3_4" result="effect2_dropShadow_3_4"/>
<feBlend mode="normal" in="SourceGraphic" in2="effect2_dropShadow_3_4" result="shape"/>
<feGaussianBlur stdDeviation="2" result="effect3_foregroundBlur_3_4"/>
</filter>
<filter id="filter4_ddf_3_4" x="1244.62" y="23.7425" width="199.246" height="734.95" filterUnits="userSpaceOnUse" color-interpolation-filters="sRGB">
<feFlood flood-opacity="0" result="BackgroundImageFix"/>
<feColorMatrix in="SourceAlpha" type="matrix" values="0 0 0 0 0 0 0 0 0 0 0 0 0 0 0 0 0 0 127 0" result="hardAlpha"/>
<feOffset dy="4"/>
<feGaussianBlur stdDeviation="2"/>
<feComposite in2="hardAlpha" operator="out"/>
<feColorMatrix type="matrix" values="0 0 0 0 0 0 0 0 0 0 0 0 0 0 0 0 0 0 0.25 0"/>
<feBlend mode="normal" in2="BackgroundImageFix" result="effect1_dropShadow_3_4"/>
<feColorMatrix in="SourceAlpha" type="matrix" values="0 0 0 0 0 0 0 0 0 0 0 0 0 0 0 0 0 0 127 0" result="hardAlpha"/>
<feOffset dy="4"/>
<feGaussianBlur stdDeviation="2"/>
<feComposite in2="hardAlpha" operator="out"/>
<feColorMatrix type="matrix" values="0 0 0 0 0 0 0 0 0 0 0 0 0 0 0 0 0 0 0.25 0"/>
<feBlend mode="normal" in2="effect1_dropShadow_3_4" result="effect2_dropShadow_3_4"/>
<feBlend mode="normal" in="SourceGraphic" in2="effect2_dropShadow_3_4" result="shape"/>
<feGaussianBlur stdDeviation="2" result="effect3_foregroundBlur_3_4"/>
</filter>
<filter id="filter5_ddf_3_4" x="0.493042" y="152.87" width="479.153" height="778.853" filterUnits="userSpaceOnUse" color-interpolation-filters="sRGB">
<feFlood flood-opacity="0" result="BackgroundImageFix"/>
<feColorMatrix in="SourceAlpha" type="matrix" values="0 0 0 0 0 0 0 0 0 0 0 0 0 0 0 0 0 0 127 0" result="hardAlpha"/>
<feOffset dy="4"/>
<feGaussianBlur stdDeviation="2"/>
<feComposite in2="hardAlpha" operator="out"/>
<feColorMatrix type="matrix" values="0 0 0 0 0 0 0 0 0 0 0 0 0 0 0 0 0 0 0.25 0"/>
<feBlend mode="normal" in2="BackgroundImageFix" result="effect1_dropShadow_3_4"/>
<feColorMatrix in="SourceAlpha" type="matrix" values="0 0 0 0 0 0 0 0 0 0 0 0 0 0 0 0 0 0 127 0" result="hardAlpha"/>
<feOffset dy="4"/>
<feGaussianBlur stdDeviation="2"/>
<feComposite in2="hardAlpha" operator="out"/>
<feColorMatrix type="matrix" values="0 0 0 0 0 0 0 0 0 0 0 0 0 0 0 0 0 0 0.25 0"/>
<feBlend mode="normal" in2="effect1_dropShadow_3_4" result="effect2_dropShadow_3_4"/>
<feBlend mode="normal" in="SourceGraphic" in2="effect2_dropShadow_3_4" result="shape"/>
<feGaussianBlur stdDeviation="2" result="effect3_foregroundBlur_3_4"/>
</filter>
</defs>
</svg>
